<svg width="20" height="20" viewBox="0 0 20 20" fill="none" xmlns="http://www.w3.org/2000/svg">
<path d="M18.9999 9.5C19.0034 10.8199 18.695 12.1219 18.0999 13.3C17.3944 14.7117 16.3097 15.8992 14.9674 16.7293C13.6251 17.5594 12.0782 17.9994 10.5 18C9.1801 18.0034 7.87809 17.695 6.69998 17.1L0.999997 19L2.89999 13.3C2.30492 12.1219 1.99655 10.8199 1.99999 9.5C2.0006 7.92176 2.4406 6.37486 3.27071 5.03256C4.10081 3.69027 5.28824 2.60559 6.69998 1.90002C7.87809 1.30496 9.1801 0.996584 10.5 1.00003H11C13.0843 1.11502 15.053 1.99478 16.5291 3.47088C18.0052 4.94697 18.885 6.91566 18.9999 9V9.5Z" stroke="#828282" stroke-width="2" stroke-linecap="round" stroke-linejoin="round"/>
</svg>
