<svg width="378" height="12" viewBox="0 0 378 12" fill="none" xmlns="http://www.w3.org/2000/svg">
<path opacity="0.35" d="M356.331 0.666236L373.004 0.666236C374.201 0.666236 375.171 1.63661 375.171 2.83362V8.83561C375.171 10.0326 374.201 11.003 373.004 11.003L356.331 11.003C355.134 11.003 354.164 10.0326 354.164 8.8356V2.83362C354.164 1.6366 355.134 0.666236 356.331 0.666236Z" stroke="white"/>
<path opacity="0.4" d="M376.671 3.8333V7.83462C377.476 7.49573 378 6.70738 378 5.83396C378 4.96054 377.476 4.17219 376.671 3.8333" fill="white"/>
<path d="M355.664 3.50051C355.664 2.76388 356.262 2.16673 356.998 2.16673L372.337 2.16673C373.073 2.16673 373.67 2.76388 373.67 3.50051V8.16872C373.67 8.90534 373.073 9.50249 372.337 9.50249L356.998 9.50249C356.262 9.50249 355.664 8.90534 355.664 8.16872V3.50051Z" fill="white"/>
<path d="M340.992 6.23805C342.21 6.23797 343.385 6.69065 344.287 7.50813C344.41 7.62415 344.602 7.62164 344.721 7.50247L345.876 6.33541C345.937 6.2742 345.971 6.19115 345.97 6.10486C345.969 6.01857 345.933 5.93623 345.871 5.87626C343.122 3.31903 338.865 3.31903 336.116 5.87626C336.054 5.93623 336.018 6.01861 336.017 6.10493C336.017 6.19125 336.05 6.27429 336.111 6.33541L337.266 7.50247C337.385 7.62164 337.577 7.62415 337.7 7.50813C338.602 6.6912 339.775 6.23855 340.992 6.23805V6.23805Z" fill="white"/>
<path d="M343.212 9.02305C343.274 8.96243 343.308 8.879 343.306 8.79246C343.304 8.70593 343.267 8.62396 343.203 8.5659C341.927 7.48666 340.058 7.48666 338.782 8.5659C338.718 8.62391 338.68 8.70585 338.678 8.79239C338.677 8.87893 338.711 8.96238 338.772 9.02305L340.771 11.0394C340.829 11.0986 340.909 11.132 340.992 11.132C341.076 11.132 341.156 11.0986 341.214 11.0394L343.212 9.02305Z" fill="white"/>
<path d="M312.318 7.16643H313.318C313.871 7.16643 314.319 7.6143 314.319 8.16676V10.1674C314.319 10.7199 313.871 11.1678 313.318 11.1678H312.318C311.766 11.1678 311.318 10.7199 311.318 10.1674V8.16676C311.318 7.6143 311.766 7.16643 312.318 7.16643V7.16643Z" fill="white"/>
<path d="M316.988 5.16577H317.988C318.54 5.16577 318.988 5.61363 318.988 6.1661V10.1674C318.988 10.7199 318.54 11.1678 317.988 11.1678H316.988C316.435 11.1678 315.987 10.7199 315.987 10.1674V6.1661C315.987 5.61363 316.435 5.16577 316.988 5.16577Z" fill="white"/>
<path d="M321.653 2.83297H322.654C323.206 2.83297 323.654 3.28083 323.654 3.8333V10.1687C323.654 10.7212 323.206 11.1691 322.654 11.1691H321.653C321.101 11.1691 320.653 10.7212 320.653 10.1687V3.8333C320.653 3.28083 321.101 2.83297 321.653 2.83297Z" fill="white"/>
<path d="M326.323 0.498212L327.323 0.498212C327.876 0.498212 328.323 0.946075 328.323 1.49854V10.1681C328.323 10.7205 327.876 11.1684 327.323 11.1684H326.323C325.77 11.1684 325.322 10.7205 325.322 10.1681V1.49854C325.322 0.946075 325.77 0.498212 326.323 0.498212V0.498212Z" fill="white"/>
<path d="M3.86847 11.0925C6.55734 11.0925 8.15455 8.98979 8.15455 5.42904C8.15455 4.08827 7.89812 2.95996 7.40723 2.08809C6.69655 0.732664 5.473 0 3.92708 0C1.62651 0 0 1.54592 0 3.71461C0 5.75141 1.46533 7.2314 3.48015 7.2314C4.71836 7.2314 5.72211 6.65259 6.22032 5.64884H6.2423C6.2423 5.64884 6.27161 5.64884 6.27893 5.64884C6.29359 5.64884 6.34487 5.64884 6.34487 5.64884C6.34487 8.06663 5.42904 9.50998 3.88312 9.50998C2.97462 9.50998 2.27126 9.01177 2.02948 8.21317H0.146533C0.461578 9.94958 1.93423 11.0925 3.86847 11.0925ZM3.93441 5.72943C2.71818 5.72943 1.85364 4.86489 1.85364 3.65599C1.85364 2.4764 2.76214 1.57523 3.94173 1.57523C5.12132 1.57523 6.02983 2.49106 6.02983 3.6853C6.02983 4.86489 5.1433 5.72943 3.93441 5.72943Z" fill="white"/>
<path d="M11.2467 10.99C11.9427 10.99 12.4189 10.4918 12.4189 9.83235C12.4189 9.16563 11.9427 8.67474 11.2467 8.67474C10.558 8.67474 10.0744 9.16563 10.0744 9.83235C10.0744 10.4918 10.558 10.99 11.2467 10.99ZM11.2467 5.49498C11.9427 5.49498 12.4189 5.0041 12.4189 4.3447C12.4189 3.67797 11.9427 3.18709 11.2467 3.18709C10.558 3.18709 10.0744 3.67797 10.0744 4.3447C10.0744 5.0041 10.558 5.49498 11.2467 5.49498Z" fill="white"/>
<path d="M19.277 10.8361H21.0867V8.86524H22.5154V7.26803H21.0867V0.263759L18.4198 0.263759C16.5515 3.07719 15.0642 5.42904 14.1117 7.18011V8.86524L19.277 8.86524V10.8361ZM15.8628 7.20209C17.0936 5.0334 18.1926 3.29699 19.2037 1.80235H19.3063V7.31199H15.8628V7.20209Z" fill="white"/>
<path d="M26.5453 10.8361H28.4356V0.263759L26.5526 0.263759L23.7905 2.19799V4.015L26.4207 2.16869H26.5453V10.8361Z" fill="white"/>
</svg>
