<svg width="38" height="40" viewBox="0 0 38 40" fill="none" xmlns="http://www.w3.org/2000/svg">
<g filter="url(#filter0_d_95_610)">
<path d="M27 29V27C27 25.9391 26.5786 24.9217 25.8284 24.1716C25.0783 23.4214 24.0609 23 23 23H15C13.9391 23 12.9217 23.4214 12.1716 24.1716C11.4214 24.9217 11 25.9391 11 27V29" stroke="#EB5757" stroke-width="2" stroke-linecap="round" stroke-linejoin="round"/>
<path d="M19 19C21.2091 19 23 17.2091 23 15C23 12.7909 21.2091 11 19 11C16.7909 11 15 12.7909 15 15C15 17.2091 16.7909 19 19 19Z" stroke="#EB5757" stroke-width="2" stroke-linecap="round" stroke-linejoin="round"/>
</g>
<defs>
<filter id="filter0_d_95_610" x="-3" y="-2" width="44" height="44" filterUnits="userSpaceOnUse" color-interpolation-filters="sRGB">
<feFlood flood-opacity="0" result="BackgroundImageFix"/>
<feColorMatrix in="SourceAlpha" type="matrix" values="0 0 0 0 0 0 0 0 0 0 0 0 0 0 0 0 0 0 127 0" result="hardAlpha"/>
<feOffset/>
<feGaussianBlur stdDeviation="5"/>
<feColorMatrix type="matrix" values="0 0 0 0 0 0 0 0 0 0 0 0 0 0 0 0 0 0 0.1 0"/>
<feBlend mode="normal" in2="BackgroundImageFix" result="effect1_dropShadow_95_610"/>
<feBlend mode="normal" in="SourceGraphic" in2="effect1_dropShadow_95_610" result="shape"/>
</filter>
</defs>
</svg>
