<svg width="22" height="22" viewBox="0 0 22 22" fill="none" xmlns="http://www.w3.org/2000/svg">
<path d="M16.1257 1.8428C16.3905 1.57809 16.7047 1.36811 17.0506 1.22485C17.3964 1.08159 17.7671 1.00786 18.1415 1.00786C18.5158 1.00786 18.8865 1.08159 19.2324 1.22485C19.5782 1.36811 19.8925 1.57809 20.1572 1.8428C20.4219 2.10751 20.6319 2.42176 20.7751 2.76762C20.9184 3.11347 20.9921 3.48416 20.9921 3.85852C20.9921 4.23287 20.9184 4.60356 20.7751 4.94941C20.6319 5.29527 20.4219 5.60953 20.1572 5.87423L6.55108 19.4803L1.00786 20.9921L2.51965 15.4489L16.1257 1.8428Z" stroke="#828282" stroke-width="2" stroke-linecap="round" stroke-linejoin="round"/>
</svg>
