<svg width="24" height="24" viewBox="0 0 24 24" fill="none" xmlns="http://www.w3.org/2000/svg">
<g clip-path="url(#clip0_95_582)">
<path d="M12 15.5862C13.6569 15.5862 15 14.2431 15 12.5862C15 10.9294 13.6569 9.5862 12 9.5862C10.3431 9.5862 9 10.9294 9 12.5862C9 14.2431 10.3431 15.5862 12 15.5862Z" stroke="#828282" stroke-width="2" stroke-linecap="round" stroke-linejoin="round"/>
<path d="M19.4 15.5862C19.2669 15.8878 19.2272 16.2224 19.286 16.5468C19.3448 16.8712 19.4995 17.1705 19.73 17.4062L19.79 17.4662C19.976 17.6519 20.1235 17.8725 20.2241 18.1153C20.3248 18.3581 20.3766 18.6184 20.3766 18.8812C20.3766 19.144 20.3248 19.4043 20.2241 19.6471C20.1235 19.8899 19.976 20.1105 19.79 20.2962C19.6043 20.4822 19.3837 20.6297 19.1409 20.7303C18.8981 20.831 18.6378 20.8828 18.375 20.8828C18.1122 20.8828 17.8519 20.831 17.6091 20.7303C17.3663 20.6297 17.1457 20.4822 16.96 20.2962L16.9 20.2362C16.6643 20.0057 16.365 19.851 16.0406 19.7922C15.7162 19.7334 15.3816 19.7731 15.08 19.9062C14.7842 20.033 14.532 20.2434 14.3543 20.5117C14.1766 20.78 14.0813 21.0944 14.08 21.4162V21.5862C14.08 22.1166 13.8693 22.6253 13.4942 23.0004C13.1191 23.3755 12.6104 23.5862 12.08 23.5862C11.5496 23.5862 11.0409 23.3755 10.6658 23.0004C10.2907 22.6253 10.08 22.1166 10.08 21.5862V21.4962C10.0723 21.1652 9.96512 20.8442 9.77251 20.5749C9.5799 20.3056 9.31074 20.1005 9 19.9862C8.69838 19.8531 8.36381 19.8134 8.03941 19.8722C7.71502 19.931 7.41568 20.0857 7.18 20.3162L7.12 20.3762C6.93425 20.5622 6.71368 20.7097 6.47088 20.8103C6.22808 20.911 5.96783 20.9628 5.705 20.9628C5.44217 20.9628 5.18192 20.911 4.93912 20.8103C4.69632 20.7097 4.47575 20.5622 4.29 20.3762C4.10405 20.1905 3.95653 19.9699 3.85588 19.7271C3.75523 19.4843 3.70343 19.224 3.70343 18.9612C3.70343 18.6984 3.75523 18.4381 3.85588 18.1953C3.95653 17.9525 4.10405 17.7319 4.29 17.5462L4.35 17.4862C4.58054 17.2505 4.73519 16.9512 4.794 16.6268C4.85282 16.3024 4.81312 15.9678 4.68 15.6662C4.55324 15.3704 4.34276 15.1182 4.07447 14.9405C3.80618 14.7628 3.49179 14.6675 3.17 14.6662H3C2.46957 14.6662 1.96086 14.4555 1.58579 14.0804C1.21071 13.7053 1 13.1966 1 12.6662C1 12.1358 1.21071 11.6271 1.58579 11.252C1.96086 10.8769 2.46957 10.6662 3 10.6662H3.09C3.42099 10.6585 3.742 10.5513 4.0113 10.3587C4.28059 10.1661 4.48572 9.89694 4.6 9.5862C4.73312 9.28459 4.77282 8.95001 4.714 8.62562C4.65519 8.30122 4.50054 8.00188 4.27 7.7662L4.21 7.7062C4.02405 7.52046 3.87653 7.29988 3.77588 7.05709C3.67523 6.81429 3.62343 6.55404 3.62343 6.2912C3.62343 6.02837 3.67523 5.76812 3.77588 5.52532C3.87653 5.28253 4.02405 5.06195 4.21 4.8762C4.39575 4.69025 4.61632 4.54273 4.85912 4.44209C5.10192 4.34144 5.36217 4.28963 5.625 4.28963C5.88783 4.28963 6.14808 4.34144 6.39088 4.44209C6.63368 4.54273 6.85425 4.69025 7.04 4.8762L7.1 4.9362C7.33568 5.16674 7.63502 5.32139 7.95941 5.38021C8.28381 5.43903 8.61838 5.39932 8.92 5.2662H9C9.29577 5.13944 9.54802 4.92896 9.72569 4.66067C9.90337 4.39238 9.99872 4.07799 10 3.7562V3.5862C10 3.05577 10.2107 2.54706 10.5858 2.17199C10.9609 1.79692 11.4696 1.5862 12 1.5862C12.5304 1.5862 13.0391 1.79692 13.4142 2.17199C13.7893 2.54706 14 3.05577 14 3.5862V3.6762C14.0013 3.99799 14.0966 4.31238 14.2743 4.58067C14.452 4.84896 14.7042 5.05944 15 5.1862C15.3016 5.31932 15.6362 5.35903 15.9606 5.30021C16.285 5.24139 16.5843 5.08674 16.82 4.8562L16.88 4.7962C17.0657 4.61025 17.2863 4.46273 17.5291 4.36209C17.7719 4.26144 18.0322 4.20963 18.295 4.20963C18.5578 4.20963 18.8181 4.26144 19.0609 4.36209C19.3037 4.46273 19.5243 4.61025 19.71 4.7962C19.896 4.98195 20.0435 5.20253 20.1441 5.44532C20.2448 5.68812 20.2966 5.94837 20.2966 6.2112C20.2966 6.47404 20.2448 6.73429 20.1441 6.97709C20.0435 7.21988 19.896 7.44046 19.71 7.6262L19.65 7.6862C19.4195 7.92188 19.2648 8.22122 19.206 8.54562C19.1472 8.87001 19.1869 9.20459 19.32 9.5062V9.5862C19.4468 9.88197 19.6572 10.1342 19.9255 10.3119C20.1938 10.4896 20.5082 10.5849 20.83 10.5862H21C21.5304 10.5862 22.0391 10.7969 22.4142 11.172C22.7893 11.5471 23 12.0558 23 12.5862C23 13.1166 22.7893 13.6253 22.4142 14.0004C22.0391 14.3755 21.5304 14.5862 21 14.5862H20.91C20.5882 14.5875 20.2738 14.6828 20.0055 14.8605C19.7372 15.0382 19.5268 15.2904 19.4 15.5862V15.5862Z" stroke="#828282" stroke-width="2" stroke-linecap="round" stroke-linejoin="round"/>
</g>
<defs>
<clipPath id="clip0_95_582">
<rect width="24" height="23.1724" fill="white"/>
</clipPath>
</defs>
</svg>
