<svg width="24" height="24" viewBox="0 0 24 24" fill="none" xmlns="http://www.w3.org/2000/svg">
<path d="M1 4L1 10H7" stroke="#828282" stroke-width="2" stroke-linecap="round" stroke-linejoin="round"/>
<path d="M23 20V14H17" stroke="#828282" stroke-width="2" stroke-linecap="round" stroke-linejoin="round"/>
<path d="M23 14L18.36 18.36C17.2853 19.4353 15.9556 20.2208 14.4952 20.6432C13.0348 21.0657 11.4911 21.1112 10.0083 20.7757C8.52548 20.4402 7.15181 19.7346 6.01548 18.7246C4.87914 17.7146 4.01718 16.4332 3.51001 15" stroke="#828282" stroke-width="2" stroke-linecap="round" stroke-linejoin="round"/>
<path d="M1.99999 8.99763L6.63999 4.63763C7.71474 3.56235 9.04436 2.77684 10.5048 2.35441C11.9652 1.93198 13.5089 1.88639 14.9917 2.22189C16.4745 2.5574 17.8482 3.26307 18.9845 4.27305C20.1209 5.28304 20.9828 6.56442 21.49 7.99763" stroke="#828282" stroke-width="2" stroke-linecap="round" stroke-linejoin="round"/>
</svg>
